<?xml version="1.0" standalone="no"?>
<!DOCTYPE svg PUBLIC "-//W3C//DTD SVG 20010904//EN"
 "http://www.w3.org/TR/2001/REC-SVG-20010904/DTD/svg10.dtd">
<svg version="1.0" xmlns="http://www.w3.org/2000/svg"
 width="1200.000000pt" height="1200.000000pt" viewBox="0 0 1200.000000 1200.000000"
 preserveAspectRatio="xMidYMid meet">
<metadata>
Created by potrace 1.14, written by Peter Selinger 2001-2017
</metadata>
<g transform="translate(0.000000,1200.000000) scale(0.100000,-0.100000)"
fill="#000000" stroke="none">
<path d="M5730 11607 c-3 -3 -36 -7 -75 -11 -38 -3 -95 -8 -125 -11 -52 -6
-168 -17 -310 -30 -36 -3 -88 -10 -116 -16 -28 -5 -64 -12 -80 -15 -22 -4
-124 -27 -214 -49 -3 -1 -23 -6 -45 -13 -22 -6 -56 -13 -75 -16 -34 -6 -139
-28 -190 -40 -13 -3 -54 -15 -90 -25 -36 -11 -96 -29 -135 -41 -77 -22 -208
-70 -290 -106 -35 -15 -88 -37 -95 -39 -36 -12 -245 -107 -254 -116 -6 -5 -18
-9 -27 -9 -10 0 -19 -4 -21 -8 -1 -4 -55 -34 -118 -65 -63 -32 -137 -71 -165
-87 -27 -17 -62 -35 -77 -41 -16 -6 -28 -15 -28 -20 0 -5 -9 -9 -20 -9 -11 0
-20 -3 -20 -8 0 -9 -67 -46 -72 -41 -3 3 -82 -54 -98 -71 -3 -3 -12 -6 -20 -8
-8 -2 -16 -8 -18 -13 -2 -5 -9 -9 -16 -9 -6 0 -27 -13 -46 -30 -19 -16 -40
-29 -47 -30 -7 0 -17 -8 -22 -17 -6 -10 -11 -13 -11 -8 0 7 -3 7 -8 0 -10 -14
-89 -75 -97 -75 -8 0 -97 -71 -107 -85 -5 -7 -8 -7 -8 0 0 6 -6 3 -13 -5 -7
-8 -32 -31 -57 -50 -25 -19 -51 -39 -58 -45 -7 -5 -27 -22 -43 -37 -16 -16
-32 -28 -35 -28 -3 0 -27 -22 -55 -49 -27 -26 -49 -46 -49 -42 0 3 -11 -6 -24
-21 -12 -15 -26 -25 -30 -21 -3 3 -6 1 -6 -5 0 -7 -6 -12 -13 -12 -14 0 -267
-253 -380 -381 -409 -460 -760 -1028 -1027 -1659 -29 -69 -61 -144 -71 -167
-11 -24 -19 -46 -19 -50 0 -4 -9 -30 -19 -58 -27 -69 -91 -279 -97 -315 -1 -8
-12 -51 -24 -95 -13 -44 -24 -107 -26 -140 -2 -33 -6 -71 -9 -85 -11 -47 -16
-75 -18 -92 -1 -10 -4 -18 -7 -18 -3 0 -5 -10 -6 -22 -1 -29 -13 -99 -20 -118
-3 -8 -8 -31 -11 -50 -3 -19 -7 -44 -8 -55 -2 -11 -4 -20 -5 -20 -1 0 -3 -16
-5 -35 -2 -19 -7 -46 -10 -60 -3 -14 -8 -45 -11 -70 -3 -25 -7 -58 -9 -75 -9
-69 -16 -167 -19 -271 -1 -60 -5 -114 -7 -120 -8 -14 5 -419 16 -524 2 -25 7
-76 10 -115 10 -112 14 -147 21 -195 4 -25 7 -60 8 -77 1 -18 4 -33 7 -33 3 0
6 -15 6 -32 0 -18 4 -46 7 -63 6 -27 10 -51 21 -125 2 -14 4 -25 5 -25 2 0 9
-31 15 -60 2 -11 8 -35 14 -53 5 -18 11 -36 12 -40 1 -4 3 -11 5 -17 1 -5 5
-23 7 -40 5 -28 19 -102 32 -169 3 -16 9 -34 13 -40 3 -6 7 -17 8 -26 3 -17 9
-41 23 -87 5 -18 7 -33 3 -33 -3 0 -1 -5 6 -12 7 -7 12 -20 12 -30 0 -10 4
-26 9 -36 5 -9 21 -55 36 -102 14 -47 29 -92 32 -100 3 -8 7 -19 9 -25 12 -51
129 -340 180 -450 16 -33 29 -63 29 -67 0 -3 3 -10 8 -14 4 -4 7 -16 7 -27 0
-35 154 -324 291 -547 36 -58 72 -116 80 -129 13 -24 42 -61 64 -85 6 -6 26
-33 45 -61 45 -67 228 -307 275 -362 9 -10 62 -71 133 -151 60 -68 265 -272
337 -335 44 -39 83 -75 87 -81 4 -6 8 -8 8 -3 0 4 8 -1 18 -10 16 -16 112
-102 171 -152 13 -11 45 -35 72 -52 27 -17 49 -35 49 -40 0 -5 7 -9 15 -9 8 0
15 -5 15 -11 0 -5 4 -8 9 -5 5 4 11 3 13 -1 3 -9 54 -50 88 -73 12 -8 28 -19
34 -25 6 -5 23 -16 39 -24 15 -8 27 -18 27 -23 0 -4 5 -8 11 -8 6 0 31 -15 57
-32 62 -43 83 -56 105 -64 9 -3 17 -10 17 -15 0 -5 6 -9 14 -9 7 0 19 -7 26
-15 7 -9 15 -13 17 -11 3 3 10 0 17 -5 17 -16 176 -108 176 -103 0 3 15 -6 33
-20 19 -14 37 -23 40 -19 4 3 7 1 7 -6 0 -7 4 -10 9 -7 5 4 11 2 13 -3 1 -4
39 -25 83 -46 44 -21 121 -57 170 -81 50 -23 97 -44 105 -46 8 -2 18 -7 21
-11 3 -5 12 -10 20 -11 12 -3 30 -10 117 -46 12 -6 33 -14 47 -20 14 -5 35
-14 48 -19 33 -13 112 -40 125 -42 4 0 18 -7 32 -14 14 -8 59 -24 100 -36 41
-12 104 -33 140 -47 36 -14 79 -28 95 -33 17 -4 73 -19 125 -33 96 -25 271
-66 390 -92 85 -19 193 -35 251 -39 25 -1 64 -5 85 -9 21 -3 82 -8 134 -12 52
-3 98 -8 101 -10 7 -4 110 -8 460 -19 154 -5 208 -3 320 14 73 10 168 23 209
27 41 4 77 8 80 9 3 1 34 5 70 9 487 56 903 144 1094 231 28 13 103 42 166 65
63 22 120 46 127 52 7 6 13 8 13 5 0 -3 30 8 67 25 61 27 110 48 123 53 31 11
86 39 91 47 3 5 8 9 10 7 8 -5 79 25 79 34 0 4 4 6 9 2 5 -3 12 -2 15 3 3 4
49 30 103 57 54 27 100 52 101 57 2 4 10 8 18 8 8 0 14 5 14 12 0 6 3 8 7 5 7
-8 125 53 136 71 4 6 13 12 19 12 6 0 35 16 64 35 29 19 56 35 61 35 4 0 20
11 35 25 15 14 34 25 43 25 8 0 15 4 15 10 0 5 16 17 35 26 19 9 35 20 35 24
0 4 14 13 30 20 17 7 30 16 30 21 0 5 5 9 11 9 12 0 87 55 107 79 6 8 12 12
12 8 0 -7 28 14 62 46 10 9 18 14 18 11 0 -3 6 1 14 8 8 7 31 27 52 43 21 17
45 37 55 46 9 9 24 21 32 25 8 5 33 26 56 47 22 20 42 37 45 37 12 0 91 76
214 203 39 42 72 74 72 70 0 -19 329 349 405 453 11 15 26 33 33 40 6 7 12 18
12 24 0 6 5 8 10 5 6 -3 10 1 10 9 0 9 5 16 10 16 6 0 10 5 10 11 0 6 7 17 15
26 9 8 34 43 57 77 23 33 46 66 50 71 5 6 41 60 80 120 40 61 78 116 85 123
40 40 293 507 293 539 0 8 13 42 29 76 74 159 121 274 121 294 0 7 4 13 8 13
4 0 14 21 21 48 8 26 18 53 24 60 5 6 6 12 2 12 -4 0 0 11 9 25 9 14 14 25 11
25 -3 0 1 16 9 35 8 19 13 35 10 35 -2 0 2 13 11 30 8 16 15 33 15 37 0 24 13
73 21 73 4 0 6 9 4 19 -2 11 2 27 10 37 9 13 10 26 3 45 -7 21 -5 35 8 61 10
18 18 38 19 43 0 6 9 28 18 50 10 21 19 46 20 55 2 8 5 20 8 25 4 6 5 18 4 28
-2 9 1 17 7 17 6 0 7 7 4 16 -3 9 -3 21 1 27 4 7 8 23 10 37 3 28 10 65 13 65
1 0 3 16 4 35 1 20 5 40 8 46 6 9 17 70 23 124 2 14 4 25 5 25 1 0 3 16 5 35
1 19 6 53 9 75 4 22 9 65 12 95 3 30 8 69 10 85 9 76 17 175 18 230 1 33 4 65
7 70 10 19 -2 772 -13 790 -3 6 -6 28 -6 50 -1 22 -4 58 -7 80 -3 22 -7 65
-10 95 -4 59 -11 115 -21 170 -4 19 -8 46 -10 60 -1 14 -3 25 -4 25 -1 0 -3
11 -5 25 -2 14 -8 52 -13 85 -6 33 -8 63 -5 68 2 4 -1 7 -7 7 -7 0 -10 6 -7
13 2 6 0 23 -5 36 -4 13 -10 38 -13 55 -2 17 -7 42 -10 56 -14 59 -17 76 -18
88 0 6 -3 12 -7 12 -4 0 -7 6 -8 13 -4 27 -10 62 -12 62 -1 0 -4 23 -5 51 -3
55 -102 370 -156 499 -7 17 -13 32 -14 35 -1 3 -7 24 -13 47 -7 23 -16 45 -21
47 -5 3 -12 17 -15 31 -11 43 -157 349 -239 499 -28 50 -63 115 -78 144 -15
29 -40 72 -54 95 -76 120 -204 317 -229 352 -17 22 -47 64 -68 93 -63 86 -123
167 -128 172 -3 3 -25 30 -50 60 -139 171 -283 328 -285 310 0 -3 -18 15 -40
39 -63 71 -223 224 -345 331 -34 30 -68 61 -75 68 -8 6 -16 12 -19 12 -3 0
-16 10 -29 23 -37 35 -77 67 -77 61 0 -3 -11 6 -24 20 -13 15 -26 26 -30 26
-4 0 -14 6 -21 13 -26 22 -147 111 -215 157 -12 8 -31 23 -42 32 -11 10 -30
20 -42 24 -11 4 -37 20 -56 35 -19 16 -40 29 -47 29 -7 0 -13 4 -13 8 0 5 -15
16 -32 25 -18 9 -55 30 -83 47 -27 17 -57 33 -65 37 -8 4 -17 9 -20 12 -11 13
-343 180 -427 215 -57 24 -128 55 -210 92 -17 8 -37 14 -45 14 -8 0 -19 5 -26
12 -7 7 -12 9 -12 5 0 -3 -21 3 -47 14 -125 54 -445 150 -583 175 -14 3 -32 7
-40 11 -19 8 -8 5 -115 31 -49 11 -103 23 -120 26 -16 3 -55 10 -85 16 -30 6
-71 13 -90 16 -19 3 -57 9 -85 14 -53 10 -109 17 -190 25 -27 3 -63 7 -80 10
-16 3 -66 8 -110 11 -44 3 -98 8 -120 10 -58 7 -650 16 -655 11z"/>
</g>
</svg>
